<?xml version="1.0" encoding="UTF-8"?> <svg xmlns="http://www.w3.org/2000/svg" id="Layer_2" viewBox="0 0 209.84 209.84"><defs><style>.cls-1{fill:#87fa9f;}.cls-2{fill:#286ff4;}</style></defs><g id="Layer_1-2"><g><rect class="cls-2" x="0" width="209.84" height="209.84" rx="57.62" ry="57.62"></rect><g><path class="cls-1" d="m86.55,68.45c-.07,0-.14,0-.21,0v36.66c-20.15.11-36.45,16.48-36.45,36.65h109.98c0-40.49-32.83-73.32-73.32-73.32Z"></path><g><path class="cls-1" d="m144.66,69.69h-3.12v-1.24h7.64v1.24h-3.12v8.84h-1.4v-8.84Z"></path><path class="cls-1" d="m150.82,68.45h1.76l2.8,5.3h.06l2.8-5.3h1.71v10.08h-1.36v-8.15h-.07l-.82,1.66-2.31,4.23-2.31-4.23-.82-1.66h-.07v8.15h-1.36v-10.08Z"></path></g></g></g></g></svg> 